<svg viewBox="0 0 36 36" fill="none" xmlns="http://www.w3.org/2000/svg"><rect width="36" height="36" rx="18" fill="#1877F2"/><path d="M16.103 18.902h-1.735c-.28 0-.368-.105-.368-.368v-2.12c0-.28.105-.368.368-.368h1.735v-1.542c0-.7.122-1.366.473-1.98a2.907 2.907 0 011.56-1.296A3.898 3.898 0 0119.483 11H21.2c.246 0 .35.105.35.35v1.998c0 .245-.104.35-.35.35-.473 0-.946 0-1.419.018-.473 0-.718.228-.718.718-.018.526 0 1.034 0 1.577h2.032c.28 0 .386.105.386.386v2.12c0 .28-.088.368-.386.368h-2.032v5.712c0 .298-.088.403-.403.403h-2.19c-.263 0-.368-.105-.368-.368v-5.73z" fill="#fff"/></svg>