<svg viewBox="0 0 36 36" fill="none" xmlns="http://www.w3.org/2000/svg"><rect width="36" height="36" rx="18" fill="#E1306C"/><path d="M24.965 15.822c-.031-.69-.143-1.166-.303-1.577a3.174 3.174 0 00-.751-1.153 3.2 3.2 0 00-1.15-.75c-.415-.16-.887-.27-1.578-.301-.696-.033-.917-.041-2.682-.041s-1.986.008-2.679.038c-.69.03-1.166.142-1.577.302a3.172 3.172 0 00-1.153.752c-.33.325-.587.719-.75 1.15-.16.414-.27.887-.301 1.577-.033.696-.041.917-.041 2.682s.008 1.986.038 2.68c.03.69.142 1.165.302 1.577.165.436.422.828.752 1.153a3.2 3.2 0 001.15.749c.414.16.887.271 1.578.302.693.03.914.038 2.679.038 1.765 0 1.986-.008 2.68-.038.69-.03 1.165-.142 1.576-.302a3.325 3.325 0 001.902-1.902c.16-.414.272-.887.302-1.578.03-.693.038-.914.038-2.679 0-1.765-.002-1.986-.032-2.679zm-1.171 5.308c-.028.635-.135.978-.224 1.206a2.156 2.156 0 01-1.234 1.234c-.228.09-.574.196-1.206.224-.686.03-.892.038-2.626.038-1.735 0-1.943-.008-2.626-.038-.635-.028-.978-.135-1.206-.224a2 2 0 01-.747-.485 2.021 2.021 0 01-.485-.746c-.089-.229-.196-.574-.223-1.207-.031-.685-.039-.891-.039-2.626 0-1.734.008-1.942.038-2.626.028-.634.135-.977.224-1.206.104-.282.27-.538.488-.746.21-.216.464-.381.746-.486.229-.088.574-.195 1.207-.223.685-.03.89-.038 2.625-.038 1.738 0 1.943.008 2.626.038.635.028.978.135 1.207.224a2 2 0 01.746.485c.216.21.381.464.485.746.09.229.196.574.224 1.207.03.685.038.89.038 2.625 0 1.735-.008 1.938-.038 2.624z" fill="#fff"/><path d="M18.501 15.162a3.34 3.34 0 10.002 6.68 3.34 3.34 0 00-.002-6.68zm0 5.505a2.167 2.167 0 11.001-4.333 2.167 2.167 0 010 4.333zm4.252-5.637a.78.78 0 11-1.56 0 .78.78 0 011.56 0z" fill="#fff"/></svg>