<svg viewBox="0 0 36 36" fill="none" xmlns="http://www.w3.org/2000/svg"><rect width="36" height="36" rx="18" fill="#010101"/><path fill-rule="evenodd" clip-rule="evenodd" d="M21.126 28.84c.79 0 1.432-.636 1.432-1.421s-.641-1.421-1.432-1.421h-.216c.791 0 1.432.636 1.432 1.421s-.641 1.42-1.432 1.42h.216z" fill="#EE1D51"/><path fill-rule="evenodd" clip-rule="evenodd" d="M20.89 25.998h-.215c-.791 0-1.433.636-1.433 1.421s.642 1.42 1.433 1.42h.216a1.427 1.427 0 01-1.433-1.42c0-.785.641-1.421 1.433-1.421z" fill="#66C8CF"/><path d="M20.9 28.11c.385 0 .697-.31.697-.691a.694.694 0 00-.696-.691.694.694 0 00-.697.69c0 .383.312.692.697.692z" fill="#010101"/><path fill-rule="evenodd" clip-rule="evenodd" d="M10 25.356v.72h.844v2.744h.844v-2.724h.686l.236-.74H10zm6.907 0v.72h.844v2.744h.844v-2.724h.687l.235-.74h-2.61zm-4.14.409a.41.41 0 01.412-.409.41.41 0 01.412.409.41.41 0 01-.412.408.41.41 0 01-.412-.408zm0 .7h.824v2.355h-.824v-2.355zm1.177-1.109v3.464h.824v-.895l.255-.233.805 1.148h.883l-1.158-1.674 1.04-1.012h-1l-.825.817v-1.615h-.824zm8.889 0v3.464h.824v-.895l.255-.233.805 1.148h.883l-1.158-1.674 1.04-1.012h-1l-.825.817v-1.615h-.824z" fill="#fff"/><path fill-rule="evenodd" clip-rule="evenodd" d="M21.561 13.363a6.924 6.924 0 004.039 1.292v-2.896c-.285 0-.57-.03-.848-.09v2.28c-1.506 0-2.9-.478-4.039-1.29v5.91a5.355 5.355 0 01-8.338 4.448 5.355 5.355 0 009.187-3.743v-5.91zm1.047-2.922a4.037 4.037 0 01-1.047-2.363v-.373h-.803a4.055 4.055 0 001.85 2.736zm-8.362 10.307a2.45 2.45 0 012.694-3.817v-2.96a5.413 5.413 0 00-.848-.05v2.305a2.45 2.45 0 00-1.846 4.522z" fill="#EE1D52"/><path fill-rule="evenodd" clip-rule="evenodd" d="M20.713 12.658a6.924 6.924 0 004.039 1.292v-2.28a4.054 4.054 0 01-2.144-1.229 4.055 4.055 0 01-1.85-2.736h-2.111v11.569a2.45 2.45 0 01-4.401 1.474 2.449 2.449 0 011.846-4.522v-2.304a5.355 5.355 0 00-3.717 9.095 5.355 5.355 0 008.338-4.448v-5.91z" fill="#fff"/><path fill-rule="evenodd" clip-rule="evenodd" d="M24.752 11.67v-.617a4.04 4.04 0 01-2.144-.612 4.05 4.05 0 002.144 1.229zm-3.994-3.965a4.09 4.09 0 01-.045-.332V7h-2.915v11.569a2.45 2.45 0 01-3.552 2.18 2.45 2.45 0 004.4-1.474V7.704h2.112zm-4.666 6.216v-.656a5.355 5.355 0 00-3.717 9.752 5.355 5.355 0 013.717-9.096z" fill="#69C9D0"/><path fill-rule="evenodd" clip-rule="evenodd" d="M20.91 28.84c.791 0 1.433-.636 1.433-1.421s-.642-1.421-1.433-1.421h-.02c-.79 0-1.432.636-1.432 1.421s.641 1.42 1.433 1.42h.02zm-.706-1.421c0-.382.312-.69.697-.69.384 0 .696.308.696.69a.694.694 0 01-.697.691.694.694 0 01-.696-.691z" fill="#fff"/></svg>